<svg aria-roledescription="flowchart-v2" role="graphics-document document" viewBox="-8 -8 719.34375 1644.199951171875" style="max-width: 719.34375px;" xmlns:xlink="http://www.w3.org/1999/xlink" xmlns="http://www.w3.org/2000/svg" width="100%" id="mermaid-1776756093391"><style>#mermaid-1776756093391{font-family:"trebuchet ms",verdana,arial,sans-serif;font-size:16px;fill:#333;}#mermaid-1776756093391 .error-icon{fill:#552222;}#mermaid-1776756093391 .error-text{fill:#552222;stroke:#552222;}#mermaid-1776756093391 .edge-thickness-normal{stroke-width:2px;}#mermaid-1776756093391 .edge-thickness-thick{stroke-width:3.5px;}#mermaid-1776756093391 .edge-pattern-solid{stroke-dasharray:0;}#mermaid-1776756093391 .edge-pattern-dashed{stroke-dasharray:3;}#mermaid-1776756093391 .edge-pattern-dotted{stroke-dasharray:2;}#mermaid-1776756093391 .marker{fill:#333333;stroke:#333333;}#mermaid-1776756093391 .marker.cross{stroke:#333333;}#mermaid-1776756093391 svg{font-family:"trebuchet ms",verdana,arial,sans-serif;font-size:16px;}#mermaid-1776756093391 .label{font-family:"trebuchet ms",verdana,arial,sans-serif;color:#333;}#mermaid-1776756093391 .cluster-label text{fill:#333;}#mermaid-1776756093391 .cluster-label span,#mermaid-1776756093391 p{color:#333;}#mermaid-1776756093391 .label text,#mermaid-1776756093391 span,#mermaid-1776756093391 p{fill:#333;color:#333;}#mermaid-1776756093391 .node rect,#mermaid-1776756093391 .node circle,#mermaid-1776756093391 .node ellipse,#mermaid-1776756093391 .node polygon,#mermaid-1776756093391 .node path{fill:#ECECFF;stroke:#9370DB;stroke-width:1px;}#mermaid-1776756093391 .flowchart-label text{text-anchor:middle;}#mermaid-1776756093391 .node .katex path{fill:#000;stroke:#000;stroke-width:1px;}#mermaid-1776756093391 .node .label{text-align:center;}#mermaid-1776756093391 .node.clickable{cursor:pointer;}#mermaid-1776756093391 .arrowheadPath{fill:#333333;}#mermaid-1776756093391 .edgePath .path{stroke:#333333;stroke-width:2.0px;}#mermaid-1776756093391 .flowchart-link{stroke:#333333;fill:none;}#mermaid-1776756093391 .edgeLabel{background-color:#e8e8e8;text-align:center;}#mermaid-1776756093391 .edgeLabel rect{opacity:0.5;background-color:#e8e8e8;fill:#e8e8e8;}#mermaid-1776756093391 .labelBkg{background-color:rgba(232, 232, 232, 0.5);}#mermaid-1776756093391 .cluster rect{fill:#ffffde;stroke:#aaaa33;stroke-width:1px;}#mermaid-1776756093391 .cluster text{fill:#333;}#mermaid-1776756093391 .cluster span,#mermaid-1776756093391 p{color:#333;}#mermaid-1776756093391 div.mermaidTooltip{position:absolute;text-align:center;max-width:200px;padding:2px;font-family:"trebuchet ms",verdana,arial,sans-serif;font-size:12px;background:hsl(80, 100%, 96.2745098039%);border:1px solid #aaaa33;border-radius:2px;pointer-events:none;z-index:100;}#mermaid-1776756093391 .flowchartTitleText{text-anchor:middle;font-size:18px;fill:#333;}#mermaid-1776756093391 :root{--mermaid-font-family:"trebuchet ms",verdana,arial,sans-serif;}</style><g><marker orient="auto" markerHeight="12" markerWidth="12" markerUnits="userSpaceOnUse" refY="5" refX="6" viewBox="0 0 10 10" class="marker flowchart" id="mermaid-1776756093391_flowchart-pointEnd"><path style="stroke-width: 1; stroke-dasharray: 1, 0;" class="arrowMarkerPath" d="M 0 0 L 10 5 L 0 10 z"/></marker><marker orient="auto" markerHeight="12" markerWidth="12" markerUnits="userSpaceOnUse" refY="5" refX="4.5" viewBox="0 0 10 10" class="marker flowchart" id="mermaid-1776756093391_flowchart-pointStart"><path style="stroke-width: 1; stroke-dasharray: 1, 0;" class="arrowMarkerPath" d="M 0 5 L 10 10 L 10 0 z"/></marker><marker orient="auto" markerHeight="11" markerWidth="11" markerUnits="userSpaceOnUse" refY="5" refX="11" viewBox="0 0 10 10" class="marker flowchart" id="mermaid-1776756093391_flowchart-circleEnd"><circle style="stroke-width: 1; stroke-dasharray: 1, 0;" class="arrowMarkerPath" r="5" cy="5" cx="5"/></marker><marker orient="auto" markerHeight="11" markerWidth="11" markerUnits="userSpaceOnUse" refY="5" refX="-1" viewBox="0 0 10 10" class="marker flowchart" id="mermaid-1776756093391_flowchart-circleStart"><circle style="stroke-width: 1; stroke-dasharray: 1, 0;" class="arrowMarkerPath" r="5" cy="5" cx="5"/></marker><marker orient="auto" markerHeight="11" markerWidth="11" markerUnits="userSpaceOnUse" refY="5.2" refX="12" viewBox="0 0 11 11" class="marker cross flowchart" id="mermaid-1776756093391_flowchart-crossEnd"><path style="stroke-width: 2; stroke-dasharray: 1, 0;" class="arrowMarkerPath" d="M 1,1 l 9,9 M 10,1 l -9,9"/></marker><marker orient="auto" markerHeight="11" markerWidth="11" markerUnits="userSpaceOnUse" refY="5.2" refX="-1" viewBox="0 0 11 11" class="marker cross flowchart" id="mermaid-1776756093391_flowchart-crossStart"><path style="stroke-width: 2; stroke-dasharray: 1, 0;" class="arrowMarkerPath" d="M 1,1 l 9,9 M 10,1 l -9,9"/></marker><g class="root"><g class="clusters"><g id="DATA" class="cluster default flowchart-label"><rect height="105" width="703.3437576293945" y="1523.1999683380127" x="0" ry="0" rx="0" style="fill:#F3E5F5;stroke:#6A1B9A;stroke-width:2px;"/><g transform="translate(313.1031265258789, 1523.1999683380127)" class="cluster-label"><foreignObject height="18.399999618530273" width="77.13750457763672"><div style="display: inline-block; white-space: nowrap;" xmlns="http://www.w3.org/1999/xhtml"><span class="nodeLabel">Data Layer</span></div></foreignObject></g></g><g id="APP" class="cluster default flowchart-label"><rect height="1299.7999687194824" width="697.2843837738037" y="155" x="6.05937385559082" ry="0" rx="0" style="fill:#FFF3E0;stroke:#E65100;stroke-width:2px;"/><g transform="translate(201.02030658721924, 155)" class="cluster-label"><foreignObject height="18.399999618530273" width="307.3625183105469"><div style="display: inline-block; white-space: nowrap;" xmlns="http://www.w3.org/1999/xhtml"><span class="nodeLabel">Application Layer (K3s Kubernetes on GCP)</span></div></foreignObject></g></g><g id="CLIENT" class="cluster default flowchart-label"><rect height="105" width="482.08750915527344" y="0" x="170.00937271118164" ry="0" rx="0" style="fill:#E3F2FD;stroke:#1565C0;stroke-width:2px;"/><g transform="translate(367.6343765258789, 0)" class="cluster-label"><foreignObject height="18.399999618530273" width="86.8375015258789"><div style="display: inline-block; white-space: nowrap;" xmlns="http://www.w3.org/1999/xhtml"><span class="nodeLabel">Client Layer</span></div></foreignObject></g></g></g><g class="edgePaths"><path marker-end="url(#mermaid-1776756093391_flowchart-pointEnd)" style="fill:none;" class="edge-thickness-normal edge-pattern-solid flowchart-link LS-WEB LE-CORE" id="L-WEB-CORE-0" d="M520.972,80L520.972,84.167C520.972,88.333,520.972,96.667,520.972,105C520.972,113.333,520.972,121.667,520.972,130C520.972,138.333,520.972,146.667,519.671,155.512C518.369,164.357,515.767,173.714,514.465,178.392L513.164,183.07"/><path marker-end="url(#mermaid-1776756093391_flowchart-pointEnd)" style="fill:none;" class="edge-thickness-normal edge-pattern-solid flowchart-link LS-MOBILE LE-CORE" id="L-MOBILE-CORE-0" d="M289.928,80L289.928,84.167C289.928,88.333,289.928,96.667,289.928,105C289.928,113.333,289.928,121.667,289.928,130C289.928,138.333,289.928,146.667,293.43,162.046C296.932,177.426,303.935,199.851,307.437,211.064L310.939,222.277"/><path marker-end="url(#mermaid-1776756093391_flowchart-pointEnd)" style="fill:none;" class="edge-thickness-normal edge-pattern-solid flowchart-link LS-CORE LE-MQ" id="L-CORE-MQ-0" d="M497.578,912.6L498.908,918.3C500.238,924,502.897,935.4,504.227,945.917C505.556,956.433,505.556,966.067,505.556,970.883L505.556,975.7"/><path marker-end="url(#mermaid-1776756093391_flowchart-pointEnd)" style="fill:none;" class="edge-thickness-normal edge-pattern-solid flowchart-link LS-MQ LE-AI" id="L-MQ-AI-0" d="M505.556,1036L505.556,1041.7C505.556,1047.4,505.556,1058.8,505.556,1069.317C505.556,1079.833,505.556,1089.467,505.556,1094.283L505.556,1099.1"/><path marker-end="url(#mermaid-1776756093391_flowchart-pointEnd)" style="fill:none;" class="edge-thickness-normal edge-pattern-solid flowchart-link LS-AI LE-PG" id="L-AI-PG-0" d="M402.219,1330.072L368.106,1350.86C333.993,1371.648,265.767,1413.224,231.654,1439.712C197.541,1466.2,197.541,1477.6,197.541,1489C197.541,1500.4,197.541,1511.8,192.689,1521.137C187.838,1530.474,178.135,1537.747,173.283,1541.384L168.432,1545.021"/><path marker-end="url(#mermaid-1776756093391_flowchart-pointEnd)" style="fill:none;" class="edge-thickness-normal edge-pattern-solid flowchart-link LS-CORE LE-PG" id="L-CORE-PG-0" d="M312.519,670.074L275.401,716.195C238.283,762.316,164.048,854.558,126.93,910.962C89.812,967.367,89.812,987.933,89.812,1008.5C89.812,1029.067,89.812,1049.633,89.812,1092.733C89.812,1135.833,89.812,1201.467,89.812,1265.567C89.812,1329.667,89.812,1392.233,89.812,1429.217C89.812,1466.2,89.812,1477.6,89.812,1489C89.812,1500.4,89.812,1511.8,92.289,1520.949C94.765,1530.098,99.718,1536.996,102.194,1540.446L104.671,1543.895"/><path marker-end="url(#mermaid-1776756093391_flowchart-pointEnd)" style="fill:none;" class="edge-thickness-normal edge-pattern-solid flowchart-link LS-CORE LE-REDIS" id="L-CORE-REDIS-0" d="M348.869,912.6L347.885,918.3C346.9,924,344.931,935.4,343.947,951.383C342.963,967.367,342.963,987.933,342.963,1008.5C342.963,1029.067,342.963,1049.633,342.963,1092.733C342.963,1135.833,342.963,1201.467,342.963,1265.567C342.963,1329.667,342.963,1392.233,342.963,1429.217C342.963,1466.2,342.963,1477.6,342.963,1489C342.963,1500.4,342.963,1511.8,342.963,1520.783C342.963,1529.767,342.963,1536.333,342.963,1539.617L342.963,1542.9"/><path marker-end="url(#mermaid-1776756093391_flowchart-pointEnd)" style="fill:none;" class="edge-thickness-normal edge-pattern-solid flowchart-link LS-CORE LE-MINIO" id="L-CORE-MINIO-0" d="M511.744,718.437L533.769,756.497C555.794,794.558,599.844,870.679,621.869,919.023C643.894,967.367,643.894,987.933,643.894,1008.5C643.894,1029.067,643.894,1049.633,643.894,1092.733C643.894,1135.833,643.894,1201.467,643.894,1265.567C643.894,1329.667,643.894,1392.233,643.894,1429.217C643.894,1466.2,643.894,1477.6,643.894,1489C643.894,1500.4,643.894,1511.8,638.017,1521.196C632.14,1530.593,620.386,1537.985,614.509,1541.682L608.632,1545.378"/><path marker-end="url(#mermaid-1776756093391_flowchart-pointEnd)" style="fill:none;" class="edge-thickness-normal edge-pattern-solid flowchart-link LS-AI LE-MINIO" id="L-AI-MINIO-0" d="M505.556,1429.8L505.556,1433.967C505.556,1438.133,505.556,1446.467,505.556,1456.333C505.556,1466.2,505.556,1477.6,505.556,1489C505.556,1500.4,505.556,1511.8,509.272,1521.056C512.989,1530.312,520.421,1537.424,524.137,1540.98L527.853,1544.536"/></g><g class="edgeLabels"><g class="edgeLabel"><g transform="translate(0, 0)" class="label"><foreignObject height="0" width="0"><div style="display: inline-block; white-space: nowrap;" xmlns="http://www.w3.org/1999/xhtml"><span class="edgeLabel"></span></div></foreignObject></g></g><g class="edgeLabel"><g transform="translate(0, 0)" class="label"><foreignObject height="0" width="0"><div style="display: inline-block; white-space: nowrap;" xmlns="http://www.w3.org/1999/xhtml"><span class="edgeLabel"></span></div></foreignObject></g></g><g transform="translate(505.5562553405762, 946.7999753952026)" class="edgeLabel"><g transform="translate(-46.16875076293945, -9.199999809265137)" class="label"><foreignObject height="18.399999618530273" width="92.3375015258789"><div style="display: inline-block; white-space: nowrap;" xmlns="http://www.w3.org/1999/xhtml"><span class="edgeLabel">Publish Tasks</span></div></foreignObject></g></g><g transform="translate(505.5562553405762, 1070.199975013733)" class="edgeLabel"><g transform="translate(-52.69375228881836, -9.199999809265137)" class="label"><foreignObject height="18.399999618530273" width="105.38750457763672"><div style="display: inline-block; white-space: nowrap;" xmlns="http://www.w3.org/1999/xhtml"><span class="edgeLabel">Consume Tasks</span></div></foreignObject></g></g><g transform="translate(197.54062461853027, 1488.9999685287476)" class="edgeLabel"><g transform="translate(-55.38750076293945, -9.199999809265137)" class="label"><foreignObject height="18.399999618530273" width="110.7750015258789"><div style="display: inline-block; white-space: nowrap;" xmlns="http://www.w3.org/1999/xhtml"><span class="edgeLabel">Direct DB Write</span></div></foreignObject></g></g><g class="edgeLabel"><g transform="translate(0, 0)" class="label"><foreignObject height="0" width="0"><div style="display: inline-block; white-space: nowrap;" xmlns="http://www.w3.org/1999/xhtml"><span class="edgeLabel"></span></div></foreignObject></g></g><g class="edgeLabel"><g transform="translate(0, 0)" class="label"><foreignObject height="0" width="0"><div style="display: inline-block; white-space: nowrap;" xmlns="http://www.w3.org/1999/xhtml"><span class="edgeLabel"></span></div></foreignObject></g></g><g class="edgeLabel"><g transform="translate(0, 0)" class="label"><foreignObject height="0" width="0"><div style="display: inline-block; white-space: nowrap;" xmlns="http://www.w3.org/1999/xhtml"><span class="edgeLabel"></span></div></foreignObject></g></g><g class="edgeLabel"><g transform="translate(0, 0)" class="label"><foreignObject height="0" width="0"><div style="display: inline-block; white-space: nowrap;" xmlns="http://www.w3.org/1999/xhtml"><span class="edgeLabel"></span></div></foreignObject></g></g></g><g class="nodes"><g transform="translate(127.5062484741211, 1575.6999683380127)" data-id="PG" data-node="true" id="flowchart-PG-13" class="node default flowchart-label"><rect height="55" width="185.0124969482422" y="-27.5" x="-92.5062484741211" ry="0" rx="0" style="" class="basic label-container"/><g transform="translate(-85.0062484741211, -20)" style="" class="label"><rect/><foreignObject height="40" width="170.0124969482422"><div style="display: inline-block; white-space: nowrap;" xmlns="http://www.w3.org/1999/xhtml"><span class="nodeLabel">🐘 PostgreSQL 16<br />(35+ models via Prisma)</span></div></foreignObject></g></g><g transform="translate(342.9625015258789, 1575.6999683380127)" data-id="REDIS" data-node="true" id="flowchart-REDIS-14" class="node default flowchart-label"><rect height="55" width="145.90000915527344" y="-27.5" x="-72.95000457763672" ry="0" rx="0" style="" class="basic label-container"/><g transform="translate(-65.45000457763672, -20)" style="" class="label"><rect/><foreignObject height="40" width="130.90000915527344"><div style="display: inline-block; white-space: nowrap;" xmlns="http://www.w3.org/1999/xhtml"><span class="nodeLabel">⚡ Redis 7<br />(Cache + Sessions)</span></div></foreignObject></g></g><g transform="translate(560.4218826293945, 1575.6999683380127)" data-id="MINIO" data-node="true" id="flowchart-MINIO-15" class="node default flowchart-label"><rect height="55" width="127.80000305175781" y="-27.5" x="-63.900001525878906" ry="0" rx="0" style="" class="basic label-container"/><g transform="translate(-56.400001525878906, -20)" style="" class="label"><rect/><foreignObject height="40" width="112.80000305175781"><div style="display: inline-block; white-space: nowrap;" xmlns="http://www.w3.org/1999/xhtml"><span class="nodeLabel">📦 MinIO / GCS<br />(Audio + Media)</span></div></foreignObject></g></g><g transform="translate(305.01874923706055, 172)" class="root"><g class="clusters"><g id="CORE" class="cluster default flowchart-label"><rect height="732.5999946594238" width="199.22500610351562" y="8" x="8" ry="0" rx="0" style="fill:#E8F5E9;stroke:#2E7D32;stroke-width:2px;"/><g transform="translate(26.90625, 8)" class="cluster-label"><foreignObject height="18.399999618530273" width="161.41250610351562"><div style="display: inline-block; white-space: nowrap;" xmlns="http://www.w3.org/1999/xhtml"><span class="nodeLabel">Core Backend (NestJS)</span></div></foreignObject></g></g></g><g class="edgePaths"/><g class="edgeLabels"/><g class="nodes"><g transform="translate(107.61250305175781, 68.89999961853027)" data-id="AUTH" data-node="true" id="flowchart-AUTH-2" class="node default flowchart-label"><rect height="51.79999923706055" width="124.625" y="-25.899999618530273" x="-62.3125" ry="0" rx="0" style="" class="basic label-container"/><g transform="translate(-54.8125, -18.399999618530273)" style="" class="label"><rect/><foreignObject height="36.79999923706055" width="109.625"><div style="display: inline-block; white-space: nowrap;" xmlns="http://www.w3.org/1999/xhtml"><span class="nodeLabel">Auth Module<br />(JWT + Guards)</span></div></foreignObject></g></g><g transform="translate(107.61250305175781, 170.69999885559082)" data-id="EXAM" data-node="true" id="flowchart-EXAM-3" class="node default flowchart-label"><rect height="51.79999923706055" width="127.30000305175781" y="-25.899999618530273" x="-63.650001525878906" ry="0" rx="0" style="" class="basic label-container"/><g transform="translate(-56.150001525878906, -18.399999618530273)" style="" class="label"><rect/><foreignObject height="36.79999923706055" width="112.30000305175781"><div style="display: inline-block; white-space: nowrap;" xmlns="http://www.w3.org/1999/xhtml"><span class="nodeLabel">Exam Module<br />(4-skill grading)</span></div></foreignObject></g></g><g transform="translate(107.61250305175781, 272.49999809265137)" data-id="IELTS" data-node="true" id="flowchart-IELTS-4" class="node default flowchart-label"><rect height="51.79999923706055" width="149.22500610351562" y="-25.899999618530273" x="-74.61250305175781" ry="0" rx="0" style="" class="basic label-container"/><g transform="translate(-67.11250305175781, -18.399999618530273)" style="" class="label"><rect/><foreignObject height="36.79999923706055" width="134.22500610351562"><div style="display: inline-block; white-space: nowrap;" xmlns="http://www.w3.org/1999/xhtml"><span class="nodeLabel">IELTS Module<br />(Basic + Advanced)</span></div></foreignObject></g></g><g transform="translate(107.61250305175781, 374.2999973297119)" data-id="VOCAB" data-node="true" id="flowchart-VOCAB-5" class="node default default flowchart-label"><rect height="51.79999923706055" width="89.5875015258789" y="-25.899999618530273" x="-44.79375076293945" ry="0" rx="0" style="" class="basic label-container"/><g transform="translate(-37.29375076293945, -18.399999618530273)" style="" class="label"><rect/><foreignObject height="36.79999923706055" width="74.5875015258789"><div style="display: inline-block; white-space: nowrap;" xmlns="http://www.w3.org/1999/xhtml"><span class="nodeLabel">Vocab Lab<br />(SM-2 SRS)</span></div></foreignObject></g></g><g transform="translate(107.61250305175781, 476.09999656677246)" data-id="SHADOW" data-node="true" id="flowchart-SHADOW-6" class="node default flowchart-label"><rect height="51.79999923706055" width="90.5875015258789" y="-25.899999618530273" x="-45.29375076293945" ry="0" rx="0" style="" class="basic label-container"/><g transform="translate(-37.79375076293945, -18.399999618530273)" style="" class="label"><rect/><foreignObject height="36.79999923706055" width="75.5875015258789"><div style="display: inline-block; white-space: nowrap;" xmlns="http://www.w3.org/1999/xhtml"><span class="nodeLabel">Shadowing<br />Module</span></div></foreignObject></g></g><g transform="translate(107.61250305175781, 577.899995803833)" data-id="GRAMMAR" data-node="true" id="flowchart-GRAMMAR-7" class="node default flowchart-label"><rect height="51.79999923706055" width="81.63750457763672" y="-25.899999618530273" x="-40.81875228881836" ry="0" rx="0" style="" class="basic label-container"/><g transform="translate(-33.31875228881836, -18.399999618530273)" style="" class="label"><rect/><foreignObject height="36.79999923706055" width="66.63750457763672"><div style="display: inline-block; white-space: nowrap;" xmlns="http://www.w3.org/1999/xhtml"><span class="nodeLabel">Grammar<br />Module</span></div></foreignObject></g></g><g transform="translate(107.61250305175781, 679.6999950408936)" data-id="PRON" data-node="true" id="flowchart-PRON-8" class="node default flowchart-label"><rect height="51.79999923706055" width="113.3375015258789" y="-25.899999618530273" x="-56.66875076293945" ry="0" rx="0" style="" class="basic label-container"/><g transform="translate(-49.16875076293945, -18.399999618530273)" style="" class="label"><rect/><foreignObject height="36.79999923706055" width="98.3375015258789"><div style="display: inline-block; white-space: nowrap;" xmlns="http://www.w3.org/1999/xhtml"><span class="nodeLabel">Pronunciation<br />Module</span></div></foreignObject></g></g></g></g><g transform="translate(505.5562553405762, 1008.4999752044678)" data-id="MQ" data-node="true" id="flowchart-MQ-9" class="node default flowchart-label"><rect height="55" width="136.6500015258789" y="-27.5" x="-68.32500076293945" ry="0" rx="0" style="fill:#FFF9C4;stroke:#F57F17;stroke-width:2px;" class="basic label-container"/><g transform="translate(-60.82500076293945, -20)" style="" class="label"><rect/><foreignObject height="40" width="121.6500015258789"><div style="display: inline-block; white-space: nowrap;" xmlns="http://www.w3.org/1999/xhtml"><span class="nodeLabel">🐰 RabbitMQ<br />(Message Broker)</span></div></foreignObject></g></g><g transform="translate(409.15625381469727, 1096.399974822998)" class="root"><g class="clusters"><g id="AI" class="cluster default flowchart-label"><rect height="325.39999771118164" width="206.6750030517578" y="8" x="-6.4375" ry="0" rx="0" style="fill:#FCE4EC;stroke:#C62828;stroke-width:2px;"/><g transform="translate(-6.4375, 8)" class="cluster-label"><foreignObject height="18.399999618530273" width="206.6750030517578"><div style="display: inline-block; white-space: nowrap;" xmlns="http://www.w3.org/1999/xhtml"><span class="nodeLabel">AI Service (FastAPI + Python)</span></div></foreignObject></g></g></g><g class="edgePaths"/><g class="edgeLabels"/><g class="nodes"><g transform="translate(96.9000015258789, 68.89999961853027)" data-id="WHISPER" data-node="true" id="flowchart-WHISPER-10" class="node default flowchart-label"><rect height="51.79999923706055" width="122.7249984741211" y="-25.899999618530273" x="-61.36249923706055" ry="0" rx="0" style="" class="basic label-container"/><g transform="translate(-53.86249923706055, -18.399999618530273)" style="" class="label"><rect/><foreignObject height="36.79999923706055" width="107.7249984741211"><div style="display: inline-block; white-space: nowrap;" xmlns="http://www.w3.org/1999/xhtml"><span class="nodeLabel">Faster-Whisper<br />(Local STT)</span></div></foreignObject></g></g><g transform="translate(96.9000015258789, 170.69999885559082)" data-id="LLM" data-node="true" id="flowchart-LLM-11" class="node default default flowchart-label"><rect height="51.79999923706055" width="127.80000305175781" y="-25.899999618530273" x="-63.900001525878906" ry="0" rx="0" style="" class="basic label-container"/><g transform="translate(-56.400001525878906, -18.399999618530273)" style="" class="label"><rect/><foreignObject height="36.79999923706055" width="112.80000305175781"><div style="display: inline-block; white-space: nowrap;" xmlns="http://www.w3.org/1999/xhtml"><span class="nodeLabel">LLM Grader<br />(Llama 3.3 70B)</span></div></foreignObject></g></g><g transform="translate(96.9000015258789, 272.49999809265137)" data-id="LEVIN" data-node="true" id="flowchart-LEVIN-12" class="node default default flowchart-label"><rect height="51.79999923706055" width="100.73750305175781" y="-25.899999618530273" x="-50.368751525878906" ry="0" rx="0" style="" class="basic label-container"/><g transform="translate(-42.868751525878906, -18.399999618530273)" style="" class="label"><rect/><foreignObject height="36.79999923706055" width="85.73750305175781"><div style="display: inline-block; white-space: nowrap;" xmlns="http://www.w3.org/1999/xhtml"><span class="nodeLabel">Levenshtein<br />Scorer</span></div></foreignObject></g></g></g></g><g transform="translate(520.9718818664551, 52.5)" data-id="WEB" data-node="true" id="flowchart-WEB-0" class="node default flowchart-label"><rect height="55" width="192.25" y="-27.5" x="-96.125" ry="0" rx="0" style="" class="basic label-container"/><g transform="translate(-88.625, -20)" style="" class="label"><rect/><foreignObject height="40" width="177.25"><div style="display: inline-block; white-space: nowrap;" xmlns="http://www.w3.org/1999/xhtml"><span class="nodeLabel">🌐 Web Portal<br />(Next.js 14 + TypeScript)</span></div></foreignObject></g></g><g transform="translate(289.92812728881836, 52.5)" data-id="MOBILE" data-node="true" id="flowchart-MOBILE-1" class="node default flowchart-label"><rect height="55" width="169.83750915527344" y="-27.5" x="-84.91875457763672" ry="0" rx="0" style="" class="basic label-container"/><g transform="translate(-77.41875457763672, -20)" style="" class="label"><rect/><foreignObject height="40" width="154.83750915527344"><div style="display: inline-block; white-space: nowrap;" xmlns="http://www.w3.org/1999/xhtml"><span class="nodeLabel">📱 Mobile App<br />(React Native / Expo)</span></div></foreignObject></g></g></g></g></g></svg>